<svg xmlns="http://www.w3.org/2000/svg" width="960" height="340" viewBox="0 0 960 340" font-family="ui-sans-serif, system-ui, sans-serif">
<style>.grid{stroke:#e2e8f0;stroke-width:1}.tick{font-size:11px;fill:#475569}.axis{stroke:#94a3b8;stroke-width:1}.title{font-size:14px;fill:#0f172a;font-weight:600}.label{font-size:12px;fill:#334155}</style>
<rect width="960" height="340" fill="white"/>
<text x="68" y="20" class="title">Key correlations</text>
<line x1="68.0" y1="294.0" x2="938.0" y2="294.0" class="grid"/><text x="60.0" y="298.0" class="tick" text-anchor="end">0.00</text><line x1="68.0" y1="223.5" x2="938.0" y2="223.5" class="grid"/><text x="60.0" y="227.5" class="tick" text-anchor="end">0.20</text><line x1="68.0" y1="153.0" x2="938.0" y2="153.0" class="grid"/><text x="60.0" y="157.0" class="tick" text-anchor="end">0.40</text><line x1="68.0" y1="82.5" x2="938.0" y2="82.5" class="grid"/><text x="60.0" y="86.5" class="tick" text-anchor="end">0.60</text><rect x="81.0" y="34.0" width="82.7" height="260.0" fill="#c2410c" opacity="0.85"/><text x="122.4" y="310.0" class="tick" text-anchor="middle">3A</text><rect x="189.8" y="76.7" width="82.7" height="217.3" fill="#2563eb" opacity="0.85"/><text x="231.1" y="310.0" class="tick" text-anchor="middle">2A</text><rect x="298.6" y="85.5" width="82.7" height="208.5" fill="#2563eb" opacity="0.85"/><text x="339.9" y="310.0" class="tick" text-anchor="middle">2B</text><rect x="407.3" y="139.1" width="82.7" height="154.9" fill="#2563eb" opacity="0.85"/><text x="448.6" y="310.0" class="tick" text-anchor="middle">6B</text><rect x="516.0" y="153.9" width="82.7" height="140.1" fill="#2563eb" opacity="0.85"/><text x="557.4" y="310.0" class="tick" text-anchor="middle">3B</text><rect x="624.8" y="178.8" width="82.7" height="115.2" fill="#2563eb" opacity="0.85"/><text x="666.1" y="310.0" class="tick" text-anchor="middle">4A</text><rect x="733.5" y="184.9" width="82.7" height="109.1" fill="#2563eb" opacity="0.85"/><text x="774.9" y="310.0" class="tick" text-anchor="middle">5B</text><rect x="842.3" y="216.7" width="82.7" height="77.3" fill="#2563eb" opacity="0.85"/><text x="883.6" y="310.0" class="tick" text-anchor="middle">4B</text><line x1="68.0" y1="294.0" x2="938.0" y2="294.0" class="axis"/><line x1="68.0" y1="34.0" x2="68.0" y2="294.0" class="axis"/><text transform="translate(16,164.0) rotate(-90)" class="label" text-anchor="middle">correlation</text></svg>
